<?xml version="1.0" encoding="UTF-8" standalone="no"?>
<!DOCTYPE svg PUBLIC "-//W3C//DTD SVG 1.1//EN" "http://www.w3.org/Graphics/SVG/1.1/DTD/svg11.dtd">
<svg version="1.1" xmlns="http://www.w3.org/2000/svg" xmlns:xlink="http://www.w3.org/1999/xlink" preserveAspectRatio="xMidYMid meet" viewBox="0 0 679 350" width="679" height="350"><defs><path d="M14.98 18.01L214.63 329.51L214.63 20.88" id="bmcDM5z72"></path><clipPath id="clipdmWK9wmxW"><use xlink:href="#bmcDM5z72" opacity="1"></use></clipPath><path d="M365.71 174.5L440.23 94.74L365.71 19.33L250.52 19.33L250.52 173.05L250.52 339.83" id="dAw9wKyKv"></path><clipPath id="clipf8QtdRDE0q"><use xlink:href="#dAw9wKyKv" opacity="1"></use></clipPath><path d="M533.9 243.3L533.9 232.18L533.9 221.37L533.9 210.88L533.9 200.71L533.9 190.86L533.9 181.33L533.9 172.12L533.9 163.23L533.9 154.65L533.9 146.4L533.9 138.46L533.9 130.84L533.9 123.54L533.9 116.56L533.9 109.9L533.9 103.56L533.9 97.54L533.9 91.83L533.9 86.45L533.9 81.38L533.9 76.63L533.9 72.2L533.9 68.09L533.9 64.3L533.9 60.83L533.9 57.68L533.9 54.84L533.9 52.33L533.9 50.13L533.9 48.26L533.9 46.7L533.9 45.46L533.9 44.54L533.9 43.94L533.9 43.65L533.9 43.69L533.9 44.04L533.9 44.72L533.9 45.71L533.9 47.02L533.9 48.65L533.9 50.6L533.9 52.87L533.9 55.46L533.9 58.36L533.9 61.59L533.9 65.13L533.9 69L533.9 73.18L533.9 77.68L533.9 82.5L533.9 87.64L533.9 93.1L533.9 98.87L533.9 104.97L533.9 111.38L533.9 118.12L533.9 125.17L533.9 132.54L533.9 140.23L533.9 148.24L533.9 156.57L533.9 165.21L533.9 174.18L533.9 183.46L533.9 193.07L533.9 202.99L533.9 213.23L533.9 223.79L533.9 234.67L533.9 245.87L533.9 257.39L533.9 269.22L533.9 281.38L533.9 293.85L533.9 306.64L533.9 291L533.9 278.59L533.9 266.51L533.9 254.75L533.9 254.75L533.9 243.3Z" id="d2tyrE9fwN"></path><path d="M392.62 48.02L256.96 171.46L365.9 171.46" id="b24mpqtk4J"></path><clipPath id="clipa1vTI1uxen"><use xlink:href="#b24mpqtk4J" opacity="1"></use></clipPath><path d="M649.82 39.86L565.28 16.69L460.1 97.24L460.1 265.25L565.28 331.45L649.82 313.16" id="b58zza5Yq"></path><clipPath id="clipblmH6bMkj"><use xlink:href="#b58zza5Yq" opacity="1"></use></clipPath><path d="M16.64 16.69L18.24 331.45L123.42 202.37" id="fhuRsq99f"></path><clipPath id="clipfjI5Hz1EY"><use xlink:href="#fhuRsq99f" opacity="1"></use></clipPath></defs><g><g><g><g clip-path="url(#clipdmWK9wmxW)"><use xlink:href="#bmcDM5z72" opacity="1" fill-opacity="0" stroke="#ffffff" stroke-width="18" stroke-opacity="1"></use></g></g><g><g clip-path="url(#clipf8QtdRDE0q)"><use xlink:href="#dAw9wKyKv" opacity="1" fill-opacity="0" stroke="#ffffff" stroke-width="18" stroke-opacity="1"></use></g></g><g><g><use xlink:href="#d2tyrE9fwN" opacity="1" fill-opacity="0" stroke="#ffffff" stroke-width="9" stroke-opacity="1"></use></g></g><g><g clip-path="url(#clipa1vTI1uxen)"><use xlink:href="#b24mpqtk4J" opacity="1" fill-opacity="0" stroke="#ffffff" stroke-width="18" stroke-opacity="1"></use></g></g><g><g clip-path="url(#clipblmH6bMkj)"><use xlink:href="#b58zza5Yq" opacity="1" fill-opacity="0" stroke="#ffffff" stroke-width="18" stroke-opacity="1"></use></g></g><g><g clip-path="url(#clipfjI5Hz1EY)"><use xlink:href="#fhuRsq99f" opacity="1" fill-opacity="0" stroke="#ffffff" stroke-width="18" stroke-opacity="1"></use></g></g></g></g></svg>